HIERARCHY
ROOT hip
{
	OFFSET 0.000000 0.000000 0.000000 
	CHANNELS 6 Xposition Yposition Zposition Xrotation Zrotation Yrotation
	JOINT abdomen
	{
		OFFSET 0.000000 3.402643 0.000000 
		CHANNELS 3 Xrotation Zrotation Yrotation
		JOINT chest
		{
			OFFSET 0.000000 8.438565 -0.680529 
			CHANNELS 3 Xrotation Zrotation Yrotation
			JOINT neck
			{
				OFFSET 0.000000 10.207942 -0.272212 
				CHANNELS 3 Xrotation Zrotation Yrotation
				JOINT head
				{
					OFFSET 0.000000 3.130431 0.000000 
					CHANNELS 3 Xrotation Zrotation Yrotation
					End Site
					{
						OFFSET 0.000000 3.130435 0.000000 
					}
				}
			}
			JOINT lCollar
			{
				OFFSET 3.470700 6.669187 -0.816635 
				CHANNELS 3 Zrotation Yrotation Xrotation
				JOINT lShldr
				{
					OFFSET 3.198488 0.000000 0.000000 
					CHANNELS 3 Zrotation Yrotation Xrotation
					JOINT lForeArm
					{
						OFFSET 10.139888 0.000000 0.000000 
						CHANNELS 3 Yrotation Zrotation Xrotation
						JOINT lHand
						{
							OFFSET 8.370511 0.000000 0.000000 
							CHANNELS 3 Zrotation Yrotation Xrotation
							End Site
							{
								OFFSET 4.083176 0.000000 0.000000 
							}
						}
					}
				}
			}
			JOINT rCollar
			{
				OFFSET -3.470700 6.669187 -0.816635 
				CHANNELS 3 Zrotation Yrotation Xrotation
				JOINT rShldr
				{
					OFFSET -3.198488 0.000000 0.000000 
					CHANNELS 3 Zrotation Yrotation Xrotation
					JOINT rForeArm
					{
						OFFSET -10.139888 0.000000 0.000000 
						CHANNELS 3 Yrotation Zrotation Xrotation
						JOINT rHand
						{
							OFFSET -8.370511 0.000000 0.000000 
							CHANNELS 3 Zrotation Yrotation Xrotation
							End Site
							{
								OFFSET -4.083176 0.000000 0.000000 
							}
						}
					}
				}
			}
		}
	}
	JOINT lThigh
	{
		OFFSET 5.308129 -1.633274 1.361059 
		CHANNELS 3 Xrotation Zrotation Yrotation
		JOINT lShin
		{
			OFFSET -2.041588 -20.007561 0.000000 
			CHANNELS 3 Xrotation Zrotation Yrotation
			JOINT lFoot
			{
				OFFSET 0.000000 -19.190928 -1.224953 
				CHANNELS 3 Xrotation Yrotation Zrotation
				End Site
				{
					OFFSET 0.000000 -2.449906 4.627600 
				}
			}
		}
	}
	JOINT rThigh
	{
		OFFSET -5.308129 -1.633274 1.361059 
		CHANNELS 3 Xrotation Zrotation Yrotation
		JOINT rShin
		{
			OFFSET 2.041588 -20.007561 0.000000 
			CHANNELS 3 Xrotation Zrotation Yrotation
			JOINT rFoot
			{
				OFFSET 0.000000 -19.190928 -1.224953 
				CHANNELS 3 Xrotation Yrotation Zrotation
				End Site
				{
					OFFSET 0.000000 -2.449906 4.627600 
				}
			}
		}
	}
}
MOTION
Frames: 17
Frame Time: 0.016667
-13.275189 42.145813 6.673971 21.075558 -19.186337 49.679890 58.622395 -5.894817 -3.597497 6.487205 -4.150421 15.454561 -27.215477 -5.949261 3.018564 -14.780129 -1.506374 -40.886406 -17.425024 2.325642 -1.655526 -65.099297 -25.053656 19.296961 -106.088829 -5.000000 -9.763296 -27.407019 -9.784051 45.000000 -20.261171 36.143047 -11.432197 90.119987 51.409966 45.847496 39.968552 -1.898966 -4.157549 32.868935 -12.567467 42.587349 -85.208817 -13.109279 -30.982063 44.840771 -10.000000 -16.181299 -11.869708 -21.566074 -30.924231 -13.834345 6.025631 -28.623856 58.712914 7.148720 13.105229 -57.185402 -13.817594 -9.794809 
-13.364367 42.063080 6.548875 20.541586 -18.746477 49.041042 58.648525 -5.965580 -3.880186 6.277452 -4.385611 15.036993 -27.254517 -6.070085 3.067348 -14.553123 -1.792925 -41.743851 -17.190981 2.341699 -1.636792 -64.795631 -24.576159 18.397554 -106.248985 -5.000000 -9.880577 -27.014898 -9.803753 45.000000 -20.046444 35.867619 -11.233113 90.099632 50.540970 45.841888 42.341175 -0.858112 -2.701589 32.608330 -12.710057 42.150612 -84.860611 -12.449498 -30.860952 45.073219 -10.000000 -16.166122 -11.188449 -21.844057 -30.844629 -13.168308 5.801727 -28.012056 59.106457 7.383013 13.714028 -58.093586 -12.695203 -9.602136 
-13.376605 42.021263 6.391676 19.844009 -17.775450 47.806015 58.679848 -6.388626 -4.200345 6.179501 -4.570376 14.863129 -27.289011 -6.124918 3.096332 -14.424392 -1.983523 -42.179562 -16.986443 2.375543 -1.626370 -64.713356 -24.490191 18.194504 -105.489830 -5.000000 -9.366247 -26.935852 -9.603081 45.000000 -19.566229 35.637821 -10.878976 90.098961 50.511681 45.842209 43.352409 0.380540 -1.313970 32.586304 -12.858578 41.953159 -83.928986 -11.634971 -30.918217 45.435295 -10.000000 -16.198128 -10.452130 -21.967636 -30.237230 -11.837678 5.567405 -27.372759 59.198418 7.176141 13.354678 -59.079967 -11.543951 -8.726521 
-13.337539 42.006733 6.213074 19.015284 -16.466099 46.173801 58.715996 -7.028250 -4.583129 6.165167 -4.724771 14.835434 -27.319866 -6.133050 3.107385 -14.382765 -2.094766 -42.320301 -16.811287 2.417901 -1.621291 -64.778923 -24.669254 18.469149 -104.126556 -5.000000 -8.443484 -27.057589 -9.250567 45.000000 -18.909994 35.425449 -10.434525 90.109634 50.970592 45.844727 43.434410 1.701039 0.085316 32.731579 -13.007843 41.909809 -82.633995 -10.739869 -31.100948 45.917942 -9.999928 -16.237379 -9.604600 -21.987762 -29.245173 -10.099827 5.254327 -26.734669 59.152702 6.707737 12.442780 -60.023888 -10.322769 -7.343892 
-13.278984 42.012993 6.041303 18.043116 -15.124520 44.433403 58.694622 -7.680691 -4.935215 6.136735 -4.840472 14.827284 -27.293724 -6.170107 3.122817 -14.273985 -2.159081 -42.341984 -16.674564 2.412400 -1.605665 -64.788689 -24.833387 18.755033 -102.597839 -5.000000 -7.416926 -27.131184 -8.947320 45.000000 -18.342598 35.214169 -10.055141 90.121849 51.488071 45.846634 43.078274 2.935451 1.405281 32.945663 -13.205780 41.980865 -81.199997 -9.774590 -31.326113 46.410000 -10.000000 -16.298639 -8.782809 -21.905430 -28.177206 -8.235434 4.980649 -25.975582 58.986088 6.238983 11.554716 -60.953552 -9.270562 -5.986665 
-13.142533 42.102394 5.896865 16.645193 -13.578348 42.268204 58.494991 -8.370598 -5.165713 6.051786 -4.801379 14.856441 -27.081366 -6.350267 3.171869 -13.951545 -2.023613 -41.829071 -16.749804 2.176425 -1.542687 -64.631424 -24.910761 19.086145 -100.404106 -5.000000 -5.926439 -27.002272 -8.874550 45.000000 -18.098166 35.065151 -9.878262 90.148064 52.571873 45.857788 41.082870 3.787805 2.500345 33.396267 -13.594882 42.541817 -79.086655 -8.598926 -31.822763 47.051422 -10.000000 -16.410181 -8.074738 -21.188204 -26.698614 -5.725728 4.725766 -24.527668 58.342445 5.969952 10.778335 -61.668835 -8.678814 -4.704016 
-13.006063 42.191818 5.752432 15.198474 -12.078241 40.081287 58.286282 -9.055077 -5.395264 5.978225 -4.752651 14.884792 -26.869230 -6.530414 3.219887 -13.629508 -1.892602 -41.326519 -16.815559 1.940881 -1.477893 -64.457535 -25.001152 19.417288 -98.254829 -5.000000 -4.526201 -26.884731 -8.795402 45.000000 -17.853687 34.916164 -9.701440 90.171997 53.528740 45.862846 39.081516 4.550116 3.647647 33.858063 -13.989565 43.091972 -77.018875 -7.409992 -32.253235 47.682690 -10.000000 -16.509825 -7.365702 -20.507692 -25.294653 -3.228956 4.413113 -23.099276 57.709675 5.678540 10.014204 -62.364662 -8.099550 -3.412472 
-12.809865 42.392929 5.692466 13.362017 -10.911172 37.910370 57.539673 -9.405317 -5.181941 5.811714 -4.696358 14.658990 -26.234282 -6.655187 3.179907 -12.696884 -1.429148 -40.698959 -16.919542 1.583072 -1.379157 -64.053932 -24.852451 19.591009 -95.377968 -5.000000 -2.827761 -26.979069 -8.927425 45.000000 -17.589197 34.689049 -9.485839 86.833069 54.838768 45.871189 37.209312 5.000000 4.727976 34.094822 -14.208355 43.733036 -74.553253 -6.185378 -32.960804 48.382206 -10.000000 -16.678806 -6.794373 -19.330576 -23.743889 -0.622802 4.256214 -21.413897 56.738014 5.766775 9.759151 -62.227669 -7.896032 -2.807506 
-12.598722 42.621994 5.653633 11.399862 -9.879319 35.734863 56.668144 -9.653506 -4.852350 5.618047 -4.640382 14.364936 -25.488359 -6.763710 3.117861 -11.606012 -0.889820 -40.035175 -17.033800 1.206755 -1.274062 -63.571411 -24.656080 19.713308 -92.401001 -5.000000 -1.198786 -27.122547 -9.125058 45.000000 -17.305939 34.451885 -9.271033 81.411186 55.997913 43.897572 35.363976 5.000000 5.843102 34.262074 -14.383101 44.405048 -72.008316 -4.919588 -33.683365 49.079914 -10.000000 -16.895241 -6.291778 -18.061108 -22.228310 2.031311 4.097815 -19.646275 55.688725 5.932812 9.621197 -61.886314 -7.742952 -2.336705 
-12.355113 42.907547 5.683648 9.262415 -8.881864 33.589069 55.714596 -9.847659 -4.466829 5.484343 -4.546559 13.982447 -24.480177 -6.720402 2.950899 -10.094379 -0.258520 -38.867691 -17.099602 0.698330 -1.133206 -63.084209 -24.285675 19.488829 -89.226952 -5.000000 0.435172 -27.289539 -9.507562 45.000000 -17.168919 33.875267 -9.038207 75.202538 57.187771 37.584759 33.909760 5.000000 6.957226 34.390949 -14.863038 44.967556 -69.128174 -3.718659 -34.303116 49.770866 -10.000000 -16.986660 -5.828012 -16.721071 -20.543907 4.802729 3.854816 -18.104134 54.566483 6.029471 9.370605 -60.981949 -7.508278 -1.885078 
-12.062813 43.277836 5.816932 6.858963 -7.918534 31.525072 54.647842 -9.978305 -4.006246 5.426896 -4.386176 13.452311 -23.048845 -6.441302 2.649019 -7.951801 0.483906 -36.944878 -17.098175 0.026283 -0.926585 -62.569450 -23.674475 18.725908 -85.719429 -5.000000 2.166690 -27.464163 -10.165698 44.136158 -17.228371 32.784107 -8.784212 67.590508 58.507710 30.037718 33.029369 5.000000 8.064301 34.411190 -15.787124 45.000000 -65.718155 -2.652801 -34.750431 50.455986 -10.000000 -16.913830 -5.434333 -15.332215 -18.594627 7.821870 3.495791 -16.855114 53.304665 6.058823 8.955597 -59.287769 -6.948803 -1.347640 
-11.770497 43.648151 5.950244 4.420182 -7.045008 29.432791 53.572422 -10.081627 -3.551472 5.366948 -4.235151 12.902735 -21.630856 -6.150791 2.354229 -5.781177 1.144169 -34.988277 -17.089420 -0.645641 -0.719567 -62.067547 -23.048685 17.975628 -82.290405 -5.000000 3.746535 -27.635595 -10.846631 42.125866 -17.297533 31.693054 -8.530035 59.481079 59.276447 22.004196 32.138393 5.000000 9.191661 34.432018 -16.713133 45.000000 -62.326000 -1.566647 -35.103603 51.151344 -9.992448 -16.858686 -5.044124 -13.904434 -16.638733 10.794852 3.092861 -15.629527 52.092327 6.061254 8.572883 -57.593407 -6.473153 -0.842984 
-11.424666 44.138535 6.265313 1.664274 -6.034058 27.193642 52.638927 -10.390988 -3.366064 5.177208 -4.123005 12.294777 -19.261530 -5.286992 1.803914 -2.477899 2.200054 -31.079868 -17.016253 -1.513117 -0.450641 -61.234489 -21.516924 15.631212 -79.210800 -5.000000 5.102379 -27.700430 -11.167954 39.750443 -18.071098 30.142778 -8.487398 49.553982 59.695431 12.098613 31.921391 5.000000 9.468349 34.326324 -17.958626 45.000000 -58.013542 -0.631754 -35.250046 51.546932 -10.000000 -16.334320 -4.925184 -12.321544 -14.880774 14.263265 2.293170 -14.206128 50.489197 6.391389 8.516951 -54.597061 -6.319536 -0.635333 
-11.078825 44.628948 6.580427 -1.117848 -5.131584 24.901073 51.710438 -10.687138 -3.169560 4.995664 -4.010452 11.687550 -16.909361 -4.408366 1.282182 0.888085 3.017074 -27.110933 -16.937170 -2.371914 -0.186635 -60.473259 -19.964739 13.332868 -76.168343 -5.000000 6.394187 -27.784657 -11.517024 37.386070 -18.805807 28.582977 -8.387515 39.626663 59.245743 2.174529 31.705578 5.000000 9.745465 34.198723 -19.201464 45.000000 -53.696426 0.325662 -35.307934 51.943653 -10.000000 -15.806750 -4.872306 -10.713700 -13.153216 17.697506 1.404398 -12.854959 48.873589 6.677005 8.469372 -51.548203 -6.074599 -0.327002 
-10.749577 45.145622 6.946120 -3.511910 -4.663774 22.303869 50.428864 -11.023114 -2.911530 4.628544 -3.965375 11.041945 -14.480151 -3.493779 0.865269 4.356562 3.785114 -22.688391 -16.877491 -2.988474 0.001364 -59.594254 -17.748491 10.298641 -74.131165 -5.000000 7.239046 -27.909883 -11.456526 35.820320 -20.204842 26.809498 -8.452643 30.111624 57.743019 -7.528131 31.812944 5.000000 8.528040 34.048977 -20.680912 45.000000 -49.738491 1.479729 -35.314869 52.100082 -10.000000 -15.262264 -5.066228 -8.953291 -11.876290 20.557991 0.388843 -11.374494 47.250233 6.928532 8.284624 -48.234596 -5.953571 0.244527 
-10.431390 45.679813 7.345547 -5.635088 -4.502748 19.496166 48.919743 -11.379051 -2.591854 4.138053 -3.968548 10.376804 -11.996749 -2.549389 0.514303 7.906647 4.385798 -17.954483 -16.826431 -3.437163 0.137321 -58.730877 -15.078096 6.837942 -72.739937 -5.000000 7.830921 -28.061617 -11.110784 34.785206 -22.005764 24.869305 -8.551727 21.565193 55.303719 -16.412619 32.101841 5.000000 6.315652 33.893330 -22.322702 45.000000 -46.038074 2.767643 -35.301567 52.108036 -9.992295 -14.681314 -5.380438 -7.232625 -10.947826 23.043694 -0.723346 -9.819689 45.570412 7.124102 8.016463 -44.751163 -5.774586 1.108545 
-10.127179 46.214645 7.737174 -7.500515 -4.489856 16.732500 47.398155 -11.731829 -2.333096 3.625971 -3.990956 9.711658 -9.788549 -1.602847 0.242478 11.236066 4.721109 -13.444563 -16.804640 -3.799012 0.256250 -57.927982 -12.226898 3.264380 -71.935150 -5.000000 8.153422 -28.226557 -10.734303 34.006100 -23.828348 22.767130 -8.511240 14.258842 52.085827 -23.980112 32.300285 3.677370 3.251896 33.548504 -24.104469 45.000000 -42.580948 3.978304 -35.145374 52.025333 -9.992246 -14.091756 -5.563993 -5.500228 -10.056120 25.179657 -1.885027 -8.331354 43.940685 7.283370 7.716342 -41.114643 -5.687881 2.010525 
